<svg xmlns="http://www.w3.org/2000/svg" viewBox="0 0 32 32" width="32" height="32"><rect width="32" height="32" rx="6" fill="#ffffff"/><path fill="#a34e2f" d="M16 11a5 5 0 1 0 0 10 5 5 0 0 0 0-10zm0 8.2a3.2 3.2 0 1 1 0-6.4 3.2 3.2 0 0 1 0 6.4zM21.2 9.8a1.2 1.2 0 1 0 0 2.4 1.2 1.2 0 0 0 0-2.4zM24 12.6c-.05-1.1-.3-2.08-.88-2.96a5.1 5.1 0 0 0-2.76-2.76C19.48 6.3 18.5 6.05 17.4 6H14.6c-1.1.05-2.08.3-2.96.88a5.1 5.1 0 0 0-2.76 2.76C8.3 10.52 8.05 11.5 8 12.6v2.8c.05 1.1.3 2.08.88 2.96a5.1 5.1 0 0 0 2.76 2.76c.88.58 1.86.83 2.96.88h2.8c1.1-.05 2.08-.3 2.96-.88a5.1 5.1 0 0 0 2.76-2.76c.58-.88.83-1.86.88-2.96V12.6zm-1.8 2.7c-.04.84-.22 1.56-.68 2.18a3.32 3.32 0 0 1-1.64 1.64c-.62.46-1.34.64-2.18.68h-2.6c-.84-.04-1.56-.22-2.18-.68a3.32 3.32 0 0 1-1.64-1.64c-.46-.62-.64-1.34-.68-2.18v-2.6c.04-.84.22-1.56.68-2.18a3.32 3.32 0 0 1 1.64-1.64c.62-.46 1.34-.64 2.18-.68h2.6c.84.04 1.56.22 2.18.68a3.32 3.32 0 0 1 1.64 1.64c.46.62.64 1.34.68 2.18v2.6z"/></svg>
