<svg xmlns="http://www.w3.org/2000/svg" viewBox="0 0 32 32" width="32" height="32"><rect width="32" height="32" rx="6" fill="#ffffff"/><path fill="#a34e2f" d="M16 9c-1.9 0-2.14.01-2.89.04-1.5.07-2.47.3-3.24.76a5.1 5.1 0 0 0-1.07.87 5.1 5.1 0 0 0-.87 1.07c-.46.77-.69 1.74-.76 3.24C9.01 13.86 9 14.1 9 16s.01 2.14.04 2.89c.07 1.5.3 2.47.76 3.24.21.38.47.71.87 1.07.36.4.69.66 1.07.87.77.46 1.74.69 3.24.76C13.86 22.99 14.1 23 16 23s2.14-.01 2.89-.04c1.5-.07 2.47-.3 3.24-.76.38-.21.71-.47 1.07-.87.4-.36.66-.69.87-1.07.46-.77.69-1.74.76-3.24.03-.75.04-.99.04-2.89s-.01-2.14-.04-2.89c-.07-1.5-.3-2.47-.76-3.24a5.1 5.1 0 0 0-.87-1.07 5.1 5.1 0 0 0-1.07-.87c-.77-.46-1.74-.69-3.24-.76C18.14 9.01 17.9 9 16 9zm0 1.62c1.87 0 2.09.01 2.83.04 1.35.06 2.08.28 2.57.47.64.25 1.1.55 1.58 1.03.48.48.78.94 1.03 1.58.19.49.41 1.22.47 2.57.03.74.04.96.04 2.83s-.01 2.09-.04 2.83c-.06 1.35-.28 2.08-.47 2.57-.25.64-.55 1.1-1.03 1.58a4.27 4.27 0 0 1-1.58 1.03c-.49.19-1.22.41-2.57.47-.74.03-.96.04-2.83.04s-2.09-.01-2.83-.04c-1.35-.06-2.08-.28-2.57-.47a4.27 4.27 0 0 1-1.58-1.03 4.27 4.27 0 0 1-1.03-1.58c-.19-.49-.41-1.22-.47-2.57C9.01 18.09 9 17.87 9 16s.01-2.09.04-2.83c.06-1.35.28-2.08.47-2.57.25-.64.55-1.1 1.03-1.58a4.27 4.27 0 0 1 1.58-1.03c.49-.19 1.22-.41 2.57-.47.74-.03.96-.04 2.83-.04zm0 2.76a3.62 3.62 0 1 0 0 7.24 3.62 3.62 0 0 0 0-7.24zm0 5.96a2.35 2.35 0 1 1 0-4.7 2.35 2.35 0 0 1 0 4.7zm4.61-6.1a.85.85 0 1 0 0 1.7.85.85 0 0 0 0-1.7z"/></svg>
